<svg xmlns="http://www.w3.org/2000/svg" width="735.662" height="224.144" viewBox="0 0 735.662 224.144">
  <path id="Path_1" data-name="Path 1" d="M261.366-79.086c.294.294-7.938,8.232-11.76,12.054-15.876,16.17-58.8,58.212-78.5,81.438a102.372,102.372,0,0,0-7.056,8.232c-.882,1.47-1.47,3.822.882,4.116,1.176.294,2.94-1.764,4.116-3.234,2.058-2.352,3.822-4.41,5.586-6.468,16.17-19.11,60.27-62.916,81.438-84.084,4.116-4.116,13.23-12.936,13.524-12.936,22.932-2.058,49.1-4.41,73.206-6.174,11.466-.588,24.99-1.47,36.162,1.176a1.794,1.794,0,0,0,2.646-.882,2.063,2.063,0,0,0-1.176-2.646c-7.35-2.646-24.4-2.646-41.748-1.764-23.226,1.47-44.394,3.528-64.386,5.292.294-.294,10.584-10.29,15.288-15.288,7.644-7.644,15.288-15.582,22.932-23.52,9.7-10.584,19.7-20.874,29.694-32.046,3.822-4.7,7.644-9.114,11.172-14.112,3.528-5.292,6.468-9.408,4.7-11.76-1.176-1.764-3.822-1.47-6.468,0a94.287,94.287,0,0,0-9.114,5.586c-4.7,3.234-9.408,6.468-13.818,9.7-7.35,5.586-14.406,10.878-21.462,16.464-12.054,9.408-23.814,18.816-35.28,28.518-6.174,5-12.348,10.29-18.522,15.288-5.88,5-11.76,9.7-17.934,14.7-4.41,4.116-14.7,12.348-15.288,12.348-1.47.294-53.8,6.762-54.684,6.762,0-1.764,1.764-3.234,1.764-5.88,0-2.058-1.176-3.234-3.234-3.822-2.058-.882-9.114.588-12.936,2.058a207.372,207.372,0,0,0-22.344,8.82c-4.116,1.47-8.232,3.528-12.054,5.292-4.41,1.176-8.82,1.47-14.112,2.352A685.759,685.759,0,0,0,9.7-42.336C-2.646-38.22-20.286-32.046-28.518-23.52c-2.646,2.94-3.528,7.056.294,9.114,4.41,3.234,23.814-.588,33.81-2.94,33.222-8.82,65.268-23.226,98.49-37.926,4.41-2.058,10-4.41,14.406-6.174,12.054-2.352,24.4-3.234,36.456-5,0,.294-3.528,4.116-5,5.88-8.526,8.526-17.052,17.64-26.166,28.224-3.528,4.116-6.762,8.232-10,12.642-1.764,2.94-6.174,9.408-5.586,14.406a5.483,5.483,0,0,0,3.234,4.41c12.642,4.7,37.044-15.582,52.92-27.342,9.114-6.762,18.228-13.818,27.048-20.874,7.644-6.174,15.288-12.642,22.932-18.522a110.273,110.273,0,0,1,8.82-7.056C224.91-74.97,260.484-78.792,261.366-79.086ZM214.326-73.5c-.294,0-15.876,12.936-23.52,19.11-14.7,11.172-28.812,22.638-46.746,35.28-7.35,5-19.4,14.406-29.4,14.406-3.528,0-1.176-4.7-.294-6.762a78.267,78.267,0,0,1,6.174-9.7A162.924,162.924,0,0,1,131.418-34.4c7.056-7.938,14.406-15.876,23.226-24.7,2.352-2.646,7.35-8.232,7.938-8.232C165.228-67.62,214.032-73.794,214.326-73.5Zm14.994-6.762c9.408-8.526,19.7-16.758,30.282-24.99,4.7-4.116,9.408-7.938,14.112-12.054,6.174-5,12.348-10,18.228-14.994,14.994-11.172,29.4-22.932,44.982-34.692,5.292-3.528,10-7.35,16.17-10-2.058,2.94-4.41,6.174-6.762,9.114q-8.379,10.584-17.64,20.286C323.4-142,318.4-136.416,313.11-130.83c-7.938,8.232-15.876,16.464-23.814,24.4-7.056,7.35-14.7,14.7-22.05,22.05C261.954-83.79,233.142-80.556,229.32-80.262ZM-26.166-18.816c.294-2.352,8.526-7.35,11.172-8.82A170.941,170.941,0,0,1,7.938-37.044C37.044-46.452,67.326-54.39,99.372-58.212,83.5-50.568,66.738-43.806,48.8-36.75,35.28-31.458,21.462-25.872,5.292-22.05.882-20.874-23.52-14.7-26.166-18.816ZM162.876-77.91c0,.588-2.352,4.7-3.528,6.468,0,0-20.874,2.646-26.46,3.528.294-.294,13.818-5.88,20.286-7.938C158.76-77.91,161.994-77.91,162.876-77.91ZM363.09-140.532c-.588.882-9.114,9.7-12.642,13.524-27.342,29.106-54.1,58.506-80.556,88.2C257.544-24.7,244.02-10.29,233.436,4.7c-.882.882-1.764,2.94-.294,3.822s2.352-.294,3.234-1.176c7.644-10,15.876-19.4,24.108-28.812,21.756-24.99,44.1-49.392,66.444-73.794,13.524-14.7,36.75-39.1,42.63-45.276,19.4.294,41.454.588,60.858,1.764a105.636,105.636,0,0,1,13.524,1.47,1.557,1.557,0,0,0,2.352-.882,2.019,2.019,0,0,0-.882-2.646c-3.528-1.47-11.466-2.058-15.288-2.352-10-.294-55.566-1.47-56.448-1.764.588-.588,5.586-5.88,7.938-8.232,6.174-6.174,12.642-12.348,18.816-18.816,3.822-3.822,7.35-7.644,10.878-11.466a1.781,1.781,0,0,0,0-2.94c-.588-.882-1.764-.882-2.94,0-1.764,2.058-3.234,3.528-7.35,7.938L367.5-144.942H340.452c-16.464.294-32.928.294-49.1.588H271.362c-1.764,0-2.352.882-2.352,1.764,0,.588,0,2.058,2.352,2.058,5,.294,29.4.294,36.456,0ZM351.624-83.79a10.247,10.247,0,0,0-1.764,5c-.588,3.822,2.058,6.468,5.88,6.762,8.82.294,19.4-9.114,21.756-17.346,1.176-4.7-1.47-7.938-6.174-7.938-5,0-11.76,2.646-16.758,6.174A88.365,88.365,0,0,0,328.4-64.092c-3.234,4.7-7.35,16.17.588,19.11,10.29,3.234,24.99-3.822,35.574-9.114,17.64-9.7,35.28-19.11,53.214-29.694,2.058-1.176,2.646-3.528-.294-4.41-9.408,5-19.7,10.878-39.69,22.05q-11.025,6.174-22.05,11.466c-7.644,3.822-17.052,7.056-23.52,6.174-7.35-.882-2.352-10.29.294-14.406C337.806-71.148,344.862-77.028,351.624-83.79Zm7.056-1.47a3.066,3.066,0,0,0,1.176-4.116c3.528-1.764,7.056-3.528,10.878-3.822,2.646,0,3.234,1.176,2.646,3.528-2.352,5.292-8.232,10.29-13.23,12.642a10.9,10.9,0,0,1-4.116,1.176c-1.764,0-2.058-.882-1.764-2.94S356.622-83.5,358.68-85.26Zm7.644,83.2c4.116.882,10-.588,13.23-1.47,17.052-5.292,40.866-20.58,63.21-35.868,13.818-9.7,27.342-19.4,40.866-29.106,6.174-4.7,13.818-10.584,19.992-15.288.882-.588,2.94-3.528-1.176-4.41,0,0-2.646,1.764-3.234,2.352-6.174,4.7-12.348,9.408-18.816,13.818C465.108-60.564,449.526-49.1,433.65-38.514c-12.348,8.232-24.7,15.876-37.632,22.932-7.938,3.822-18.522,9.7-27.342,9.408-2.352-.294-3.234-.882-2.94-3.528a27.526,27.526,0,0,1,1.176-4.7c2.058-5.586,5.292-10.584,8.526-15.582,6.174-9.408,13.23-18.228,20.286-27.048C411.6-76.146,428.652-94.08,446-111.72c15.582-15.876,31.458-31.164,47.04-46.746,10.878-10.878,21.756-21.756,31.752-33.222,1.764-1.764,3.528-3.822,2.352-5-1.47-1.47-2.646-.294-4.41,1.176-12.054,12.348-24.108,24.99-36.162,37.044-15.582,15.582-31.164,30.87-46.452,46.452a737.2,737.2,0,0,0-49.98,55.272c-7.056,8.526-14.112,17.346-19.992,26.754-2.94,4.7-5.88,9.7-7.644,14.994a21.485,21.485,0,0,0-1.176,6.762A6.544,6.544,0,0,0,366.324-2.058ZM480.4-54.684A13.347,13.347,0,0,1,482.16-58.8l6.174-8.82c5.586-6.762,12.054-12.936,18.522-19.11.882-.882,2.058-1.764,2.94-2.646a1.964,1.964,0,0,0,0-2.94c-1.47-1.47-2.94.294-4.116,1.176a202.329,202.329,0,0,0-16.17,15.582c-3.822,4.41-7.644,8.82-10.584,13.818a18.676,18.676,0,0,0-2.646,6.174c-.588,2.94,1.176,5.292,4.116,5.292,4.7,0,11.76-4.116,15.288-5.88l32.634-18.522c9.7-5.292,13.524-7.938,16.17-9.408.882-.294,2.352-3.528-1.47-4.116,0,0-10,5.88-19.7,11.466-10.584,5.88-20.874,11.76-31.164,17.346C488.922-57.624,483.336-54.684,480.4-54.684Zm45.57-62.034a2.268,2.268,0,0,0-1.764,3.234,1.852,1.852,0,0,0,2.352.882,2.077,2.077,0,0,0,1.764-2.352A1.781,1.781,0,0,0,525.966-116.718ZM544.194-83.79a10.247,10.247,0,0,0-1.764,5c-.588,3.822,2.058,6.468,5.88,6.762,8.82.294,19.4-9.114,21.756-17.346,1.176-4.7-1.47-7.938-6.174-7.938-5,0-11.76,2.646-16.758,6.174a88.364,88.364,0,0,0-26.166,27.048c-3.234,4.7-7.35,16.17.588,19.11,10.29,3.234,24.99-3.822,35.574-9.114,17.64-9.7,35.28-19.11,53.214-29.694,2.058-1.176,2.646-3.528-.294-4.41-9.408,5-19.7,10.878-39.69,22.05q-11.025,6.174-22.05,11.466c-7.644,3.822-17.052,7.056-23.52,6.174-7.35-.882-2.352-10.29.294-14.406C530.376-71.148,537.432-77.028,544.194-83.79Zm7.056-1.47a3.066,3.066,0,0,0,1.176-4.116c3.528-1.764,7.056-3.528,10.878-3.822,2.646,0,3.234,1.176,2.646,3.528-2.352,5.292-8.232,10.29-13.23,12.642a10.9,10.9,0,0,1-4.116,1.176c-1.764,0-2.058-.882-1.764-2.94S549.192-83.5,551.25-85.26Zm64.68-.294a94.994,94.994,0,0,0,12.054-7.35c10-7.35,37.044-28.224,32.634-42.336-1.176-3.822-5.292-8.82-17.052-6.762-13.524,2.352-28.812,9.408-35.28,22.638-3.234,6.762-3.528,13.818-2.058,20.874,1.176,5.88,3.822,11.172,6.762,16.17,1.47,2.94,3.234,5.88,4.7,9.114,4.41,11.172-6.174,21.756-13.23,29.694-8.232,9.114-16.17,18.522-24.4,27.636-4.116,4.7-10.584,11.76-11.466,16.758-.588,2.94.588,5.586,4.116,5.292,4.41-.294,11.76-3.528,16.758-7.056,6.468-4.41,12.642-8.82,19.11-13.23,30.87-22.05,61.446-44.688,92.022-67.62,3.234-2.352,6.762-5,1.764-6.468,0,0-3.234,2.058-3.822,2.646-16.464,12.054-32.928,24.4-49.1,36.456-15.876,11.466-31.458,22.638-47.334,34.1-5.586,4.116-11.172,7.938-17.052,11.76a35.73,35.73,0,0,1-12.348,5.292c0-3.528,11.172-15.288,14.406-19.4,7.938-9.114,15.876-17.934,23.814-26.754,7.644-9.408,17.052-19.7,9.7-32.928A41.027,41.027,0,0,0,615.93-85.554Zm32.34-52.626c7.056-.294,9.114,4.116,8.232,7.644-2.646,9.114-11.172,16.758-18.228,23.52-9.408,8.82-14.7,11.76-24.108,17.64-3.528-7.644-5.586-15.876-3.528-24.108,3.234-10.878,13.524-17.64,24.7-21.756C640.038-137,644.742-138.18,648.27-138.18Z" transform="translate(30.801 197.362)" fill="#c19a5b"/>
</svg>
