<svg xmlns="http://www.w3.org/2000/svg" width="833.99" height="243.99" viewBox="0 0 833.99 243.99">
  <path id="Path_1" data-name="Path 1" d="M341.334-184.926c-19.992-15.876-58.212-11.172-85.848-5-30.576,7.056-59.976,18.522-87.906,32.34a555.007,555.007,0,0,0-81.144,48.8C60.858-90.552,36.162-70.854,13.524-48.51,2.94-37.926-7.644-26.754-16.758-14.406-25.284-2.94-34.4,10.878-36.162,25.578c-.882,6.762.294,13.524,5.88,17.934,5.88,4.7,14.112,5,21.168,4.7,15.582-.588,31.164-5,46.158-8.82C67.62,31.164,97.9,22.344,128.478,14.406c30.87-7.644,62.034-14.7,93.2-20.874,31.164-6.468,62.622-12.642,94.08-15.876,1.764,0,27.048-2.352,26.166,1.176,0,1.176-1.764,2.352-2.352,3.528a2.086,2.086,0,0,0,1.764,2.646c1.47.294,2.94-1.764,3.528-2.646,2.352-2.94,2.058-6.174-.882-8.232-5.586-3.822-24.99-1.176-34.1-.294C278.124-22.344,246.96-16.464,215.5-10S152.586,3.528,121.128,11.76c-30.87,7.938-61.74,17.052-92.61,24.99-14.112,3.822-30.576,8.526-46.452,6.762C-34.692,41.16-33.516,26.46-27.048,11.466-20.874-2.646-11.172-14.994-1.176-26.46A427.213,427.213,0,0,1,31.458-59.094a642.222,642.222,0,0,1,74.676-57.918,561.528,561.528,0,0,1,83.5-45.864c28.224-12.348,58.506-22.932,89.376-26.754,15.582-1.764,33.81-3.822,48.51,2.058,12.642,5,22.344,14.7,21.168,30.87-.588,7.35-3.234,14.406-6.174,20.874-2.352,5.586-5.586,10.584-8.232,15.876-.588,1.47-1.764,2.94-1.764,4.7a1.988,1.988,0,0,0,2.646,1.764c1.176-.588,1.47-2.058,2.058-2.94,5-10,11.466-18.816,14.406-30.87C355.446-161.112,352.8-175.812,341.334-184.926ZM339.276-52.332c-.294,3.528,2.058,5.586,5.292,5,5-.882,10.29-4.7,15.288-8.82A64.012,64.012,0,0,0,372.5-70.266,14.942,14.942,0,0,0,374.85-78.2c5.586-.882,26.46-4.116,37.926-5.88,1.176,0,3.234-3.528-.588-4.116-8.232,1.176-20.58,2.94-29.106,4.116-7.056,1.176-10,1.764-11.172,1.176-1.764-.882-4.7-1.176-5.292,1.47-.294,1.176.294,2.94,2.94,3.234.882.294.294,2.646-.588,4.7a55.341,55.341,0,0,1-4.7,6.762c-5,5.586-12.642,13.23-19.992,15.288-.882.294-.882-.294-.882-.882.294-2.646,2.352-7.056,3.822-9.408a127.537,127.537,0,0,1,23.814-27.93,6.426,6.426,0,0,1,1.47-.882,1.787,1.787,0,0,0,1.176-2.646c-1.47-2.646-4.7-.294-6.468,1.176C360.15-85.848,354.27-78.5,348.39-71.148,344.862-66.738,339.57-59.388,339.276-52.332ZM394.548-63.5c5.292-5.586,11.466-12.348,16.758-17.64,5-5.292,10-10.584,15.288-15.876,1.47-1.47,3.822-3.822,1.764-5.586-1.47-.882-3.822,1.764-5.292,3.234C416.01-92.316,408.954-85.26,402.192-78.2c-5.88,6.174-11.172,12.054-16.758,18.228-1.47,1.764-5.292,5-3.234,7.644,1.47,1.764,4.116,0,5.88-1.176,10.584-7.644,21.168-14.994,32.34-21.756,3.822-2.646,12.642-7.644,12.936-7.938-2.94,5.292-7.644,13.23-9.408,19.7-.882,3.234.882,5.586,4.41,5.292,8.232,0,23.226-8.82,34.4-14.994,7.938-4.7,9.408-5.88,17.64-10.584.882-.588,2.94-4.116-1.47-4.41,0,0-6.762,4.116-12.054,7.35a262.273,262.273,0,0,1-25.284,13.818c-3.822,1.47-10.584,4.41-13.23,4.41a85.763,85.763,0,0,1,4.116-9.114c2.058-4.116,5.586-10,6.174-12.642.588-2.352-.882-4.41-3.528-3.822C428.358-87.024,405.426-71.148,394.548-63.5Zm66.738,0c5.292-5.586,11.466-12.348,16.758-17.64,5-5.292,10-10.584,15.288-15.876,1.47-1.47,3.822-3.822,1.764-5.586-1.47-.882-3.822,1.764-5.292,3.234C482.748-92.316,475.692-85.26,468.93-78.2c-5.88,6.174-11.172,12.054-16.758,18.228-1.47,1.764-5.292,5-3.234,7.644,1.47,1.764,4.116,0,5.88-1.176,10.584-7.644,21.168-14.994,32.34-21.756,3.822-2.646,12.642-7.644,12.936-7.938-2.94,5.292-7.644,13.23-9.408,19.7-.882,3.234.882,5.586,4.41,5.292,8.232,0,23.226-8.82,34.4-14.994,7.938-4.7,9.408-5.88,17.64-10.584.882-.588,2.94-4.116-1.47-4.41,0,0-6.762,4.116-12.054,7.35a262.273,262.273,0,0,1-25.284,13.818c-3.822,1.47-10.584,4.41-13.23,4.41a85.763,85.763,0,0,1,4.116-9.114c2.058-4.116,5.586-10,6.174-12.642.588-2.352-.882-4.41-3.528-3.822C495.1-87.024,472.164-71.148,461.286-63.5ZM546.84-83.79a10.247,10.247,0,0,0-1.764,5c-.588,3.822,2.058,6.468,5.88,6.762,8.82.294,19.4-9.114,21.756-17.346,1.176-4.7-1.47-7.938-6.174-7.938-5,0-11.76,2.646-16.758,6.174a88.364,88.364,0,0,0-26.166,27.048c-3.234,4.7-7.35,16.17.588,19.11,10.29,3.234,24.99-3.822,35.574-9.114,17.64-9.7,35.28-19.11,53.214-29.694,2.058-1.176,2.646-3.528-.294-4.41-9.408,5-19.7,10.878-39.69,22.05q-11.025,6.174-22.05,11.466c-7.644,3.822-17.052,7.056-23.52,6.174-7.35-.882-2.352-10.29.294-14.406C533.022-71.148,540.078-77.028,546.84-83.79Zm7.056-1.47a3.066,3.066,0,0,0,1.176-4.116C558.6-91.14,562.128-92.9,565.95-93.2c2.646,0,3.234,1.176,2.646,3.528-2.352,5.292-8.232,10.29-13.23,12.642a10.9,10.9,0,0,1-4.116,1.176c-1.764,0-2.058-.882-1.764-2.94S551.838-83.5,553.9-85.26Zm78.5-11.466a5.581,5.581,0,0,1-.882,2.646l-3.528,5.292c-1.176,1.764-1.47,2.646,0,4.116,1.47,1.176,3.234-1.47,4.41-3.234a23.469,23.469,0,0,0,4.116-7.644c.588-3.234-1.176-5.292-4.41-5.292-4.41.294-9.114,3.528-13.23,6.762a127.31,127.31,0,0,0-19.992,21.756c-3.528,4.7-7.35,11.76-7.644,17.052-.294,4.41,2.352,7.056,6.762,7.056s11.76-3.234,17.346-6.468c17.934-10.29,33.516-19.11,51.744-29.4,1.47-.882,1.176-3.528-1.47-4.116-17.346,9.7-34.692,19.7-51.744,29.4-5,2.646-10.878,5.88-15.582,6.468-2.352.294-3.234-.588-2.94-2.646.588-4.116,2.94-8.232,5.88-12.936A113.752,113.752,0,0,1,615.342-85.26a87.343,87.343,0,0,1,10-8.232C627.69-94.962,630.336-96.432,632.394-96.726Zm81.732-43.806c-.588.882-9.114,9.7-12.642,13.524-27.342,29.106-54.1,58.506-80.556,88.2C608.58-24.7,595.056-10.29,584.472,4.7c-.882.882-1.764,2.94-.294,3.822s2.352-.294,3.234-1.176c7.644-10,15.876-19.4,24.108-28.812,21.756-24.99,44.1-49.392,66.444-73.794,13.524-14.7,36.75-39.1,42.63-45.276,19.4.294,41.454.588,60.858,1.764a105.635,105.635,0,0,1,13.524,1.47,1.557,1.557,0,0,0,2.352-.882,2.019,2.019,0,0,0-.882-2.646c-3.528-1.47-11.466-2.058-15.288-2.352-10-.294-55.566-1.47-56.448-1.764.588-.588,5.586-5.88,7.938-8.232,6.174-6.174,12.642-12.348,18.816-18.816,3.822-3.822,7.35-7.644,10.878-11.466a1.781,1.781,0,0,0,0-2.94c-.588-.882-1.764-.882-2.94,0-1.764,2.058-3.234,3.528-7.35,7.938l-33.516,33.516H691.488c-16.464.294-32.928.294-49.1.588H622.4c-1.764,0-2.352.882-2.352,1.764,0,.588,0,2.058,2.352,2.058,5,.294,29.4.294,36.456,0Z" transform="translate(36.426 195.694)" fill="#c19a5b"/>
</svg>
