<svg xmlns="http://www.w3.org/2000/svg" width="867.247" height="257.76" viewBox="0 0 867.247 257.76">
  <path id="Path_1" data-name="Path 1" d="M-5-70.854C-24.4-53.214-35.28-30.282-26.46-5.292c8.82,26.166,35.28,41.748,59.682,50.568,27.342,9.7,57.036,13.23,85.554,13.524a467.2,467.2,0,0,0,86.142-7.938,530.561,530.561,0,0,0,84.966-24.7,523.16,523.16,0,0,0,78.792-37.632c24.7-14.112,48.51-30.282,70.266-49.1,10.584-9.114,20.874-18.816,29.694-29.694,8.82-10.584,16.758-22.344,21.756-35.28,4.7-12.642,6.468-27.636,0-39.984-6.174-11.466-17.934-17.64-30.282-19.4-14.112-2.058-28.812.294-42.63,4.41A224.852,224.852,0,0,0,377.2-164.64a362.954,362.954,0,0,0-37.632,21.168c-6.174,3.822-12.054,7.644-17.934,11.76-2.94,2.058-9.114,6.762-16.758,11.466,3.234-3.528,6.762-6.762,10-10.29,14.112-14.406,28.224-28.518,42.63-42.924,3.528-3.528,19.11-19.7,20.874-21.168,2.352-2.058,1.764-3.234,1.176-3.822-1.764-1.47-3.822.588-5,1.764-3.822,3.234-39.1,39.1-53.214,53.508-7.35,7.35-14.406,14.7-21.462,22.05-1.764,1.764-5.586,5.292-7.35,7.056,0,0-11.76-2.058-16.464-2.94-38.514-6.468-78.792-4.41-119.07-2.058-38.808,2.058-77.616,5.586-114.072,19.7C25.578-92.61,8.82-83.5-5-70.854Zm293.412-38.808c-7.35,8.232-15.582,15.288-24.108,22.638-19.11,16.17-38.514,33.81-54.39,54.39-1.47,1.764-7.35,8.232-2.94,9.7,1.764.882,3.528-.882,4.7-2.058,12.348-11.466,23.814-23.814,37.044-37.632,15.288-15.288,29.4-31.458,47.334-44.982,3.822.882,8.526,3.528,10.878,7.056,1.176,1.47,1.764,3.822,2.94,5,1.764,1.47,3.528-.588,3.234-2.352a17.872,17.872,0,0,0-2.646-5.292c-2.352-3.528-6.174-5.88-10-7.644,7.35-6.174,15.582-11.466,23.52-17.052a502.622,502.622,0,0,1,51.156-30.87c17.934-9.114,36.75-17.052,56.448-20.58,16.758-3.234,38.808-3.822,51.156,10.29,12.642,14.7,7.056,36.456-.882,51.744-8.82,17.052-22.05,31.752-36.162,44.688a384.4,384.4,0,0,1-45.57,36.162A548.655,548.655,0,0,1,293.118,20.286a503.453,503.453,0,0,1-119.07,30.87c-39.69,5-81.438,5.292-120.54-4.41-18.816-4.7-37.338-11.76-52.92-23.52C-14.112,11.76-25.872-5-24.99-24.4c.882-18.522,12.642-34.692,26.46-46.452,14.406-12.054,31.752-20.58,49.1-26.754a267.6,267.6,0,0,1,58.506-13.23c19.4-2.352,38.808-3.822,57.918-4.41C206.682-117.012,248.136-119.07,288.414-109.662ZM497.742-83.79a10.247,10.247,0,0,0-1.764,5c-.588,3.822,2.058,6.468,5.88,6.762,8.82.294,19.4-9.114,21.756-17.346,1.176-4.7-1.47-7.938-6.174-7.938-5,0-11.76,2.646-16.758,6.174a88.365,88.365,0,0,0-26.166,27.048c-3.234,4.7-7.35,16.17.588,19.11,10.29,3.234,24.99-3.822,35.574-9.114,17.64-9.7,35.28-19.11,53.214-29.694,2.058-1.176,2.646-3.528-.294-4.41-9.408,5-19.7,10.878-39.69,22.05q-11.025,6.174-22.05,11.466c-7.644,3.822-17.052,7.056-23.52,6.174-7.35-.882-2.352-10.29.294-14.406C483.924-71.148,490.98-77.028,497.742-83.79Zm7.056-1.47a3.066,3.066,0,0,0,1.176-4.116C509.5-91.14,513.03-92.9,516.852-93.2c2.646,0,3.234,1.176,2.646,3.528-2.352,5.292-8.232,10.29-13.23,12.642a10.9,10.9,0,0,1-4.116,1.176c-1.764,0-2.058-.882-1.764-2.94S502.74-83.5,504.8-85.26ZM648.564-88.2l-2.058,1.176c-19.992,12.642-40.278,21.168-63.21,27.342-5.292,1.47-10.878,2.646-16.17,3.822,2.94-5,5-9.7,5.586-14.994A30.229,30.229,0,0,0,568.89-86.73c.588-.588,12.642-9.408,18.228-13.524,10.584-7.938,28.224-20.58,31.458-29.694,1.47-4.116.882-7.644-4.116-9.408-7.056-2.646-17.934-.294-24.99,2.058-12.936,4.7-40.572,17.346-33.516,34.986a65.785,65.785,0,0,0,5.88,12.054c4.7,7.35,7.644,12.936,6.174,21.756-1.176,4.7-4.116,9.7-7.056,13.818-12.642,1.764-30.576,4.41-42.924,6.174-7.35,1.176-14.994,2.352-19.992,6.468-4.116,3.528-6.174,7.644-5,13.23a12.378,12.378,0,0,0,7.35,8.82c9.114,4.41,22.344.882,31.164-4.116,11.76-6.762,23.52-17.64,32.046-26.754,25.284-5,48.216-12.348,69.384-23.52A187.617,187.617,0,0,0,649.74-83.79C651.8-84.966,651.5-87.612,648.564-88.2Zm-81.732-2.058c-2.352-4.116-5-8.232-6.762-12.642-7.644-21.168,43.806-37.632,53.214-32.928,1.764.882,2.646,2.058,1.47,4.41-4.116,7.938-21.168,20.874-28.812,26.46C579.768-99.96,574.77-96.138,566.832-90.258Zm-40.278,63.8c-8.232,4.116-20.58,7.644-27.342.882-3.234-3.234-2.646-8.526-.294-11.466,5.88-7.644,23.226-7.938,33.222-9.408,7.644-1.176,23.814-3.234,24.7-3.234C550.368-43.218,537.726-32.046,526.554-26.46Zm99.96-28.224a13.347,13.347,0,0,1,1.764-4.116l6.174-8.82c5.586-6.762,12.054-12.936,18.522-19.11.882-.882,2.058-1.764,2.94-2.646a1.964,1.964,0,0,0,0-2.94c-1.47-1.47-2.94.294-4.116,1.176a202.324,202.324,0,0,0-16.17,15.582c-3.822,4.41-7.644,8.82-10.584,13.818a18.677,18.677,0,0,0-2.646,6.174c-.588,2.94,1.176,5.292,4.116,5.292,4.7,0,11.76-4.116,15.288-5.88l32.634-18.522c9.7-5.292,13.524-7.938,16.17-9.408.882-.294,2.352-3.528-1.47-4.116,0,0-10,5.88-19.7,11.466-10.584,5.88-20.874,11.76-31.164,17.346C635.04-57.624,629.454-54.684,626.514-54.684Zm45.57-62.034a2.268,2.268,0,0,0-1.764,3.234,1.852,1.852,0,0,0,2.352.882,2.077,2.077,0,0,0,1.764-2.352A1.781,1.781,0,0,0,672.084-116.718Zm19.7,47.04C697.368-73.5,705.6-79.086,710.3-82.614c-.294.294-22.638,25.578-33.222,37.338a12.787,12.787,0,0,1-2.058,1.764c-1.764.882-4.116,1.764-5.88,2.646q-15.876,7.056-30.87,14.112a180.065,180.065,0,0,0-24.4,13.818c-7.644,5.586-15.288,13.524-19.4,19.7-4.116,6.468-7.056,13.524-5.586,18.816.882,2.94,2.352,4.7,5.292,5.586C603.288,33.81,614.46,24.7,622.4,18.522A203.2,203.2,0,0,0,645.33-3.528c10.878-11.76,21.462-23.814,32.34-35.574a14.144,14.144,0,0,1,3.234-2.646c2.94-1.176,6.174-2.646,9.114-4.116C712.362-56.742,734.706-67.62,757.05-78.2c4.116-2.058,8.526-4.116,12.642-6.174,1.176-.588,1.47-3.234-1.47-3.822-8.232,3.528-38.808,18.522-46.452,22.344-11.172,5.292-29.694,14.112-34.986,16.464.294-.588,19.992-22.932,29.4-33.516,3.234-3.528,6.174-7.056,9.114-10.584,1.764-2.058,2.352-2.94.882-4.7-1.176-1.176-2.352-.588-4.116.588-2.058,1.47-3.822,2.94-5.586,4.116a5,5,0,0,0-4.116-4.116c-2.94-.588-6.174.294-10,1.764a69.5,69.5,0,0,0-24.99,18.228,24.9,24.9,0,0,0-5,9.408c-.588,2.94,1.176,5,4.41,5C680.316-62.916,687.666-66.738,691.782-69.678Zm-23.226,33.81c-.294.588-21.756,24.99-32.928,36.162a164.089,164.089,0,0,1-19.7,17.934c-5,4.41-14.994,10-19.7,9.408A3.88,3.88,0,0,1,593,23.52c0-5.586,2.352-9.7,5.586-14.406A60.86,60.86,0,0,1,616.812-9.408,122.074,122.074,0,0,1,640.92-23.226C649.446-27.342,667.968-35.574,668.556-35.868ZM676.2-67.032c.294-2.352,2.94-5.88,3.822-7.056a65.322,65.322,0,0,1,24.7-17.934,18.179,18.179,0,0,1,7.056-1.47c.882.882-1.176,2.352-.882,3.234a3.379,3.379,0,0,1-1.764,2.646c-5.88,4.41-11.466,8.82-17.64,12.936C687.666-72.03,679.728-67.326,676.2-67.032ZM750.582-63.5c5.292-5.586,11.466-12.348,16.758-17.64,5-5.292,10-10.584,15.288-15.876,1.47-1.47,3.822-3.822,1.764-5.586-1.47-.882-3.822,1.764-5.292,3.234-7.056,7.056-14.112,14.112-20.874,21.168-5.88,6.174-11.172,12.054-16.758,18.228-1.47,1.764-5.292,5-3.234,7.644,1.47,1.764,4.116,0,5.88-1.176,10.584-7.644,21.168-14.994,32.34-21.756,3.822-2.646,12.642-7.644,12.936-7.938-2.94,5.292-7.644,13.23-9.408,19.7-.882,3.234.882,5.586,4.41,5.292,8.232,0,23.226-8.82,34.4-14.994,7.938-4.7,9.408-5.88,17.64-10.584.882-.588,2.94-4.116-1.47-4.41,0,0-6.762,4.116-12.054,7.35a262.28,262.28,0,0,1-25.284,13.818c-3.822,1.47-10.584,4.41-13.23,4.41a85.769,85.769,0,0,1,4.116-9.114c2.058-4.116,5.586-10,6.174-12.642.588-2.352-.882-4.41-3.528-3.822C784.392-87.024,761.46-71.148,750.582-63.5Z" transform="translate(29.561 198.96)" fill="#c19a5b"/>
</svg>
