<svg xmlns="http://www.w3.org/2000/svg" width="874.239" height="252.841" viewBox="0 0 874.239 252.841">
  <path id="Path_1" data-name="Path 1" d="M320.754-109.368c7.35-11.466,8.232-21.168,5.586-29.988-.882-3.528-2.94-6.762-5-10-4.116-6.174-10-11.172-16.17-15.288-13.818-9.408-30.282-15.582-46.452-19.992a311.516,311.516,0,0,0-52.038-9.408c-35.28-3.234-70.854-1.47-106.134,4.116A431.513,431.513,0,0,0-.588-161.406c-31.458,13.23-62.034,30.282-87.318,52.92-6.468,5.88-12.642,11.76-17.934,18.522a72.439,72.439,0,0,0-6.468,10c-1.764,3.234-3.528,7.35-2.646,11.172a6.8,6.8,0,0,0,2.94,4.116c1.47.588,3.234,0,3.234-1.764-.294-1.47-2.352-2.058-2.352-4.116a14.1,14.1,0,0,1,1.47-5c3.822-7.644,9.114-14.112,14.7-20.286,11.76-12.348,25.578-22.638,39.69-32.046a368.817,368.817,0,0,1,44.982-24.4A434.8,434.8,0,0,1,90.846-184.044a423.32,423.32,0,0,1,105.546-6.468,319.292,319.292,0,0,1,52.92,7.938c16.464,4.116,33.222,9.408,47.922,17.934,13.23,7.938,27.636,20.286,26.166,37.044-1.764,16.17-16.464,29.106-28.518,38.22-13.524,10.584-28.518,19.4-43.806,27.636C235.494-53.508,219.324-46.158,202.86-39.1c-16.464,6.762-32.928,13.23-49.98,17.64a147.982,147.982,0,0,1-25.284,5c-8.232.588-17.346,1.176-24.99-3.234-15.288-8.82-1.47-32.046,5.292-42.336,9.114-14.406,20.286-27.636,32.046-40.278,12.054-12.936,24.7-25.284,37.338-37.632,3.528-3.234,6.762-6.468,10-9.7,1.47-1.47,6.468-5.292,3.822-7.644-1.764-2.058-5.292.294-6.762,1.176-3.822,2.058-7.35,4.7-10.878,6.762-29.694,19.7-57.036,42.63-83.79,65.856Q49.1-47.775,10.29-10.29C-2.646,2.058-15.582,14.7-27.636,27.93c-5.88,6.174-12.054,12.642-16.17,19.992-1.47,2.352-3.822,7.644,0,9.114,1.764.588,2.94-.588,2.646-2.352-.294-.882-.588-.882-.294-2.058,0-.882.882-1.764,1.176-2.352,4.116-7.35,10.29-13.524,15.876-19.7,6.174-6.468,12.642-12.936,18.816-19.4C7.056-1.176,19.7-13.524,32.928-25.578c26.166-24.7,52.332-49.1,79.968-72.03a700.925,700.925,0,0,1,65.268-49.1c-1.176,1.176-2.646,2.352-3.822,3.528-20.874,19.992-41.454,40.278-59.094,63.21C103.194-64.386,73.5-22.05,107.31-12.936c7.056,1.764,14.406,1.47,21.462.588a131.214,131.214,0,0,0,21.462-3.822,345.861,345.861,0,0,0,42.63-14.406A497.381,497.381,0,0,0,272.538-69.09c12.054-7.35,23.814-14.994,34.4-24.7A77.252,77.252,0,0,0,320.754-109.368Zm16.464,23.814a94.992,94.992,0,0,0,12.054-7.35c10-7.35,37.044-28.224,32.634-42.336-1.176-3.822-5.292-8.82-17.052-6.762-13.524,2.352-28.812,9.408-35.28,22.638-3.234,6.762-3.528,13.818-2.058,20.874,1.176,5.88,3.822,11.172,6.762,16.17,1.47,2.94,3.234,5.88,4.7,9.114,4.41,11.172-6.174,21.756-13.23,29.694-8.232,9.114-16.17,18.522-24.4,27.636-4.116,4.7-10.584,11.76-11.466,16.758-.588,2.94.588,5.586,4.116,5.292,4.41-.294,11.76-3.528,16.758-7.056,6.468-4.41,12.642-8.82,19.11-13.23,30.87-22.05,61.446-44.688,92.022-67.62,3.234-2.352,6.762-5,1.764-6.468,0,0-3.234,2.058-3.822,2.646C403.368-73.5,386.9-61.152,370.734-49.1c-15.876,11.466-31.458,22.638-47.334,34.1-5.586,4.116-11.172,7.938-17.052,11.76A35.73,35.73,0,0,1,294,2.058c0-3.528,11.172-15.288,14.406-19.4C316.344-26.46,324.282-35.28,332.22-44.1c7.644-9.408,17.052-19.7,9.7-32.928A41.03,41.03,0,0,0,337.218-85.554Zm32.34-52.626c7.056-.294,9.114,4.116,8.232,7.644-2.646,9.114-11.172,16.758-18.228,23.52-9.408,8.82-14.7,11.76-24.108,17.64-3.528-7.644-5.586-15.876-3.528-24.108,3.234-10.878,13.524-17.64,24.7-21.756C361.326-137,366.03-138.18,369.558-138.18Zm29.988,85.848c-.294,3.528,2.058,5.586,5.292,5,5-.882,10.29-4.7,15.288-8.82a64.012,64.012,0,0,0,12.642-14.112A14.942,14.942,0,0,0,435.12-78.2c5.586-.882,26.46-4.116,37.926-5.88,1.176,0,3.234-3.528-.588-4.116-8.232,1.176-20.58,2.94-29.106,4.116-7.056,1.176-10,1.764-11.172,1.176-1.764-.882-4.7-1.176-5.292,1.47-.294,1.176.294,2.94,2.94,3.234.882.294.294,2.646-.588,4.7a55.341,55.341,0,0,1-4.7,6.762c-5,5.586-12.642,13.23-19.992,15.288-.882.294-.882-.294-.882-.882.294-2.646,2.352-7.056,3.822-9.408A127.537,127.537,0,0,1,431.3-89.67a6.426,6.426,0,0,1,1.47-.882,1.787,1.787,0,0,0,1.176-2.646c-1.47-2.646-4.7-.294-6.468,1.176C420.42-85.848,414.54-78.5,408.66-71.148,405.132-66.738,399.84-59.388,399.546-52.332Zm72.03-13.524C459.816-58.8,438.648-45.57,435.12-43.512c1.764-1.764,24.4-24.99,35.868-37.044,3.234-3.234,6.468-6.762,9.7-10.29a2.3,2.3,0,0,0,0-3.234c-1.764-1.47-3.528,1.176-5.292,2.94L464.814-80.556C451-66.15,423.36-37.338,421.89-35.868,405.72-27.048,388.668-18.228,372.5-10,361.326-4.116,348.39.294,338.982,9.114A20.165,20.165,0,0,0,333.69,19.7c-.882,6.174,2.646,11.466,9.7,12.054,8.82.588,19.11-5.88,26.46-11.466A217.276,217.276,0,0,0,392.784,0c10.29-10.29,21.462-22.05,31.458-32.34,1.176-.588,29.106-17.052,42.63-25.284,15.288-9.7,26.166-16.464,41.454-26.166,1.764-.882,2.94-3.528-1.176-4.41C493.038-79.38,485.688-74.676,471.576-65.856ZM411.306-24.99c-2.94,2.94-21.756,22.344-32.928,32.34-5.88,5.292-12.054,10.584-18.816,14.7-4.7,2.646-11.466,7.056-17.052,5.292-6.468-2.058-4.7-8.526-2.058-12.936,5.292-7.35,15.582-11.466,24.7-15.876C380.436-9.114,407.778-23.226,411.306-24.99Zm86.73-89.964a1.7,1.7,0,0,0,1.764,1.764,1.7,1.7,0,0,0,1.764-1.764,2.2,2.2,0,0,0-2.058-1.764C498.624-116.718,498.036-116.13,498.036-114.954Zm10.29,31.164a10.247,10.247,0,0,0-1.764,5c-.588,3.822,2.058,6.468,5.88,6.762,8.82.294,19.4-9.114,21.756-17.346,1.176-4.7-1.47-7.938-6.174-7.938-5,0-11.76,2.646-16.758,6.174A88.365,88.365,0,0,0,485.1-64.092c-3.234,4.7-7.35,16.17.588,19.11,10.29,3.234,24.99-3.822,35.574-9.114,17.64-9.7,35.28-19.11,53.214-29.694,2.058-1.176,2.646-3.528-.294-4.41-9.408,5-19.7,10.878-39.69,22.05q-11.025,6.174-22.05,11.466c-7.644,3.822-17.052,7.056-23.52,6.174-7.35-.882-2.352-10.29.294-14.406C494.508-71.148,501.564-77.028,508.326-83.79Zm7.056-1.47a3.066,3.066,0,0,0,1.176-4.116c3.528-1.764,7.056-3.528,10.878-3.822,2.646,0,3.234,1.176,2.646,3.528-2.352,5.292-8.232,10.29-13.23,12.642a10.9,10.9,0,0,1-4.116,1.176c-1.764,0-2.058-.882-1.764-2.94S513.324-83.5,515.382-85.26Zm78.5-11.466A5.581,5.581,0,0,1,593-94.08l-3.528,5.292c-1.176,1.764-1.47,2.646,0,4.116,1.47,1.176,3.234-1.47,4.41-3.234A23.469,23.469,0,0,0,598-95.55c.588-3.234-1.176-5.292-4.41-5.292-4.41.294-9.114,3.528-13.23,6.762a127.31,127.31,0,0,0-19.992,21.756c-3.528,4.7-7.35,11.76-7.644,17.052-.294,4.41,2.352,7.056,6.762,7.056s11.76-3.234,17.346-6.468c17.934-10.29,33.516-19.11,51.744-29.4,1.47-.882,1.176-3.528-1.47-4.116-17.346,9.7-34.692,19.7-51.744,29.4-5,2.646-10.878,5.88-15.582,6.468-2.352.294-3.234-.588-2.94-2.646.588-4.116,2.94-8.232,5.88-12.936A113.752,113.752,0,0,1,576.828-85.26a87.343,87.343,0,0,1,10-8.232C589.176-94.962,591.822-96.432,593.88-96.726Zm81.732-43.806c-.588.882-9.114,9.7-12.642,13.524-27.342,29.106-54.1,58.506-80.556,88.2C570.066-24.7,556.542-10.29,545.958,4.7c-.882.882-1.764,2.94-.294,3.822s2.352-.294,3.234-1.176c7.644-10,15.876-19.4,24.108-28.812,21.756-24.99,44.1-49.392,66.444-73.794,13.524-14.7,36.75-39.1,42.63-45.276,19.4.294,41.454.588,60.858,1.764a105.634,105.634,0,0,1,13.524,1.47,1.557,1.557,0,0,0,2.352-.882,2.019,2.019,0,0,0-.882-2.646c-3.528-1.47-11.466-2.058-15.288-2.352-10-.294-55.566-1.47-56.448-1.764.588-.588,5.586-5.88,7.938-8.232,6.174-6.174,12.642-12.348,18.816-18.816,3.822-3.822,7.35-7.644,10.878-11.466a1.781,1.781,0,0,0,0-2.94c-.588-.882-1.764-.882-2.94,0-1.764,2.058-3.234,3.528-7.35,7.938l-33.516,33.516H652.974c-16.464.294-32.928.294-49.1.588H583.884c-1.764,0-2.352.882-2.352,1.764,0,.588,0,2.058,2.352,2.058,5,.294,29.4.294,36.456,0ZM747.936-88.2l-2.058,1.176c-19.992,12.642-40.278,21.168-63.21,27.342-5.292,1.47-10.878,2.646-16.17,3.822,2.94-5,5-9.7,5.586-14.994a30.229,30.229,0,0,0-3.822-15.876c.588-.588,12.642-9.408,18.228-13.524,10.584-7.938,28.224-20.58,31.458-29.694,1.47-4.116.882-7.644-4.116-9.408-7.056-2.646-17.934-.294-24.99,2.058-12.936,4.7-40.572,17.346-33.516,34.986a65.785,65.785,0,0,0,5.88,12.054c4.7,7.35,7.644,12.936,6.174,21.756-1.176,4.7-4.116,9.7-7.056,13.818-12.642,1.764-30.576,4.41-42.924,6.174-7.35,1.176-14.994,2.352-19.992,6.468-4.116,3.528-6.174,7.644-5,13.23a12.378,12.378,0,0,0,7.35,8.82c9.114,4.41,22.344.882,31.164-4.116,11.76-6.762,23.52-17.64,32.046-26.754,25.284-5,48.216-12.348,69.384-23.52a187.617,187.617,0,0,0,16.758-9.408C751.17-84.966,750.876-87.612,747.936-88.2ZM666.2-90.258c-2.352-4.116-5-8.232-6.762-12.642-7.644-21.168,43.806-37.632,53.214-32.928,1.764.882,2.646,2.058,1.47,4.41-4.116,7.938-21.168,20.874-28.812,26.46C679.14-99.96,674.142-96.138,666.2-90.258Zm-40.278,63.8c-8.232,4.116-20.58,7.644-27.342.882-3.234-3.234-2.646-8.526-.294-11.466,5.88-7.644,23.226-7.938,33.222-9.408,7.644-1.176,23.814-3.234,24.7-3.234C649.74-43.218,637.1-32.046,625.926-26.46Z" transform="translate(115.189 195.652)" fill="#c19a5b"/>
</svg>
